<svg width="53" height="52" viewBox="0 0 53 52" fill="none" xmlns="http://www.w3.org/2000/svg">
<path d="M17.7272 41.8301C17.7272 42.0449 17.4815 42.2168 17.1716 42.2168C16.819 42.249 16.5732 42.0771 16.5732 41.8301C16.5732 41.6152 16.819 41.4434 17.1288 41.4434C17.4494 41.4111 17.7272 41.583 17.7272 41.8301ZM14.404 41.3467C14.3292 41.5615 14.5429 41.8086 14.8635 41.873C15.1413 41.9805 15.4619 41.873 15.526 41.6582C15.5901 41.4434 15.3871 41.1963 15.0665 41.0996C14.7887 41.0244 14.4788 41.1318 14.404 41.3467ZM19.127 41.1641C18.8171 41.2393 18.6034 41.4434 18.6355 41.6904C18.6675 41.9053 18.9454 42.0449 19.2659 41.9697C19.5758 41.8945 19.7895 41.6904 19.7575 41.4756C19.7254 41.2715 19.4369 41.1318 19.127 41.1641ZM26.1581 0C11.3373 0 0 11.3115 0 26.2109C0 38.124 7.45847 48.3184 18.1119 51.9062C19.4796 52.1533 19.9605 51.3047 19.9605 50.6064C19.9605 49.9404 19.9284 46.2666 19.9284 44.0107C19.9284 44.0107 12.4486 45.6221 10.8778 40.8096C10.8778 40.8096 9.65968 37.6836 7.90726 36.8779C7.90726 36.8779 5.46028 35.1914 8.07823 35.2236C8.07823 35.2236 10.7389 35.4385 12.2028 37.9951C14.5429 42.1416 18.4645 40.9492 19.9925 40.2402C20.2383 38.5215 20.9329 37.3291 21.7022 36.6201C15.729 35.9541 9.70242 35.084 9.70242 24.75C9.70242 21.7959 10.5145 20.3135 12.2242 18.4229C11.9464 17.7246 11.0381 14.8457 12.502 11.1289C14.7353 10.4307 19.875 14.0293 19.875 14.0293C22.0121 13.4277 24.3095 13.1162 26.5855 13.1162C28.8615 13.1162 31.1589 13.4277 33.296 14.0293C33.296 14.0293 38.4357 10.4199 40.669 11.1289C42.1329 14.8564 41.2246 17.7246 40.9468 18.4229C42.6565 20.3242 43.7036 21.8066 43.7036 24.75C43.7036 35.1162 37.4099 35.9434 31.4367 36.6201C32.4198 37.4688 33.2532 39.0801 33.2532 41.6045C33.2532 45.2246 33.2212 49.7041 33.2212 50.585C33.2212 51.2832 33.7127 52.1318 35.0698 51.8848C45.7552 48.3184 53 38.124 53 26.2109C53 11.3115 40.9788 0 26.1581 0ZM10.3863 37.0498C10.2474 37.1572 10.2794 37.4043 10.4611 37.6084C10.6321 37.7803 10.8778 37.8555 11.0167 37.7158C11.1556 37.6084 11.1236 37.3613 10.9419 37.1572C10.771 36.9854 10.5252 36.9102 10.3863 37.0498ZM9.23226 36.1797C9.15746 36.3193 9.26431 36.4912 9.47802 36.5986C9.64899 36.7061 9.8627 36.6738 9.9375 36.5234C10.0123 36.3838 9.90544 36.2119 9.69173 36.1045C9.47802 36.04 9.30706 36.0723 9.23226 36.1797ZM12.6944 40.0039C12.5234 40.1436 12.5875 40.4658 12.8333 40.6699C13.079 40.917 13.3889 40.9492 13.5278 40.7773C13.6667 40.6377 13.6026 40.3154 13.3889 40.1113C13.1538 39.8643 12.8333 39.832 12.6944 40.0039ZM11.4762 38.4248C11.3052 38.5322 11.3052 38.8115 11.4762 39.0586C11.6472 39.3057 11.9357 39.4131 12.0746 39.3057C12.2456 39.166 12.2456 38.8867 12.0746 38.6396C11.925 38.3926 11.6472 38.2852 11.4762 38.4248Z" fill="#e5e5e5"/>
</svg>
