<svg width="54" height="55" viewBox="0 0 54 55" fill="none" xmlns="http://www.w3.org/2000/svg">
<path d="M26.9999 0.140625C12.0882 0.140625 0 12.2288 0 27.1406C0 42.0524 12.0882 54.1406 26.9999 54.1406C41.9117 54.1406 54 42.0524 54 27.1406C53.9999 12.2288 41.9115 0.140625 26.9999 0.140625ZM19.7963 40.1939H13.8682V21.0418H19.7963V40.1939ZM16.804 18.5337C14.8679 18.5337 13.2984 16.9514 13.2984 14.9998C13.2984 13.048 14.8682 11.4658 16.804 11.4658C18.7398 11.4658 20.3094 13.048 20.3094 14.9998C20.3095 16.9515 18.74 18.5337 16.804 18.5337ZM42.0119 40.1939H36.1125V30.1406C36.1125 27.3833 35.0652 25.8442 32.8849 25.8442C30.512 25.8442 29.2724 27.4472 29.2724 30.1406V40.1939H23.5867V21.0418H29.2724V23.6213C29.2724 23.6213 30.9827 20.4576 35.0437 20.4576C39.1048 20.4576 42.012 22.9373 42.012 28.0671L42.0119 40.1939Z" fill="#525252"/>
</svg>
