<svg width="53" height="53" viewBox="0 0 53 53" fill="none" xmlns="http://www.w3.org/2000/svg">
<path d="M45.2443 7.62891C41.2453 3.64219 36.9879 6.22617 34.3178 8.88398L9.11777 34.084C6.44766 36.7541 3.65449 40.8146 7.86269 45.0105C12.0586 49.2064 16.1068 46.4133 18.777 43.7432L43.977 18.5432C46.6471 15.8854 49.231 11.6156 45.2443 7.62891ZM21.1641 6.59531L26.5043 11.9355L31.9307 6.49687C32.2998 6.12773 32.6689 5.7832 33.0504 5.46328C32.4844 2.59629 30.8479 0 26.492 0C22.1361 0 20.4996 2.60859 19.9459 5.47559C20.352 5.83242 20.758 6.18926 21.1641 6.59531ZM31.9307 46.2287L26.5043 40.8023L21.1641 46.1303C20.758 46.5363 20.3643 46.9178 19.9582 47.2623C20.5734 50.1908 22.2961 52.8609 26.492 52.8609C30.7002 52.8609 32.4352 50.1662 33.0381 47.2377C32.6689 46.9178 32.2998 46.5979 31.9307 46.2287ZM18.9 19.5275H8.61328C4.83574 19.5275 0 20.7211 0 26.3566C0 30.5771 2.69473 32.2998 5.63555 32.9027C5.98008 32.509 18.9 19.5275 18.9 19.5275ZM47.3853 19.8105C47.0654 20.1797 34.1086 33.198 34.1086 33.198H44.2477C48.0252 33.198 52.8609 32.2998 52.8609 26.3566C52.8609 22.0131 50.2646 20.3766 47.3853 19.8105ZM22.2715 16.1561L24.1049 14.3227L18.777 8.98242C16.1068 6.3123 12.0586 3.51914 7.85039 7.72734C4.77422 10.8035 5.46328 13.8059 7.0875 16.2299C7.59199 16.193 22.2715 16.1561 22.2715 16.1561ZM30.7248 36.5695L28.8791 38.4152L34.3178 43.8416C36.9879 46.5117 41.2453 49.0957 45.232 45.109C48.2098 42.1312 47.533 38.9936 45.8842 36.4957C45.3551 36.5326 30.7248 36.5695 30.7248 36.5695Z" fill="#e5e5e5"/>
</svg>
