<?xml version="1.0" encoding="utf-8"?>
<svg id="master-artboard" viewBox="0 0 300.8840026855469 310.0625915527344" version="1.0" xmlns="http://www.w3.org/2000/svg" x="0px" y="0px" width="300.8840026855469px" height="310.0625915527344px" style="enable-background:new 0 0 1400 980;"><rect id="ee-background" x="0" y="0" width="300.8840026855469" height="310.0625915527344" style="fill: white; fill-opacity: 0; pointer-events: none;"/>


<path style="fill:#1A1A1A;" d="M790.93,137.16c18.12,0,35.42,6.52,48.98,17.84c1.36-1.65,2.87-3.16,4.52-4.52&#10;&#9;&#9;c-11.33-13.56-17.84-30.87-17.84-48.98c0-4.34,0.38-8.63,1.1-12.83c-12.15-8.27-26.48-12.73-41.51-12.73&#10;&#9;&#9;c-6.24,0-12.46,0.78-18.49,2.33c-5.32,20.71-1.33,42.61,10.43,59.99C782.32,137.53,786.6,137.16,790.93,137.16z M838.45,194.98&#10;&#9;&#9;c-3.81-5.38-6.06-11.95-6.06-19.03c0-7.08,2.25-13.65,6.06-19.03c-13.15-11.01-29.94-17.35-47.52-17.35&#10;&#9;&#9;c-26.07,0-50.41,13.92-63.7,36.38c13.28,22.46,37.62,36.38,63.7,36.38C808.51,212.34,825.3,206,838.45,194.98z M865.39,142.95&#10;&#9;&#9;c7.08,0,13.65,2.25,19.03,6.06c11.01-13.15,17.35-29.94,17.35-47.52c0-26.07-13.92-50.41-36.38-63.7&#10;&#9;&#9;c-22.46,13.28-36.38,37.62-36.38,63.7c0,17.58,6.34,34.37,17.35,47.52C851.75,145.2,858.31,142.95,865.39,142.95z M886.35,150.48&#10;&#9;&#9;c1.65,1.36,3.16,2.87,4.52,4.52c13.56-11.33,30.87-17.84,48.99-17.84c4.33,0,8.61,0.37,12.8,1.09&#10;&#9;&#9;c11.75-17.38,15.75-39.28,10.43-59.99c-6.03-1.55-12.25-2.33-18.49-2.33c-15.03,0-29.36,4.46-41.51,12.74&#10;&#9;&#9;c0.72,4.2,1.1,8.49,1.1,12.83C904.19,119.61,897.67,136.91,886.35,150.48z M939.85,139.58c-17.58,0-34.37,6.34-47.52,17.35&#10;&#9;&#9;c3.81,5.38,6.06,11.95,6.06,19.03c0,7.08-2.25,13.65-6.06,19.03c13.15,11.01,29.94,17.35,47.52,17.35&#10;&#9;&#9;c26.07,0,50.41-13.92,63.7-36.38C990.27,153.5,965.93,139.58,939.85,139.58z M844.44,201.43c-1.65-1.36-3.16-2.87-4.52-4.52&#10;&#9;&#9;c-13.56,11.33-30.87,17.84-48.98,17.84c-4.33,0-8.61-0.37-12.8-1.09c-11.75,17.38-15.75,39.28-10.43,59.99&#10;&#9;&#9;c6.03,1.55,12.24,2.33,18.49,2.33c15.02,0,29.36-4.46,41.51-12.73c-0.72-4.2-1.1-8.49-1.1-12.83&#10;&#9;&#9;C826.59,232.3,833.11,215,844.44,201.43z M939.85,214.75c-18.12,0-35.42-6.52-48.98-17.84c-1.36,1.65-2.87,3.16-4.52,4.52&#10;&#9;&#9;c11.33,13.56,17.84,30.87,17.84,48.98c0,4.34-0.38,8.62-1.1,12.83c12.15,8.27,26.48,12.74,41.51,12.74h0&#10;&#9;&#9;c6.24,0,12.45-0.78,18.49-2.33c5.32-20.71,1.33-42.61-10.43-59.99C948.46,214.38,944.18,214.75,939.85,214.75z M865.39,208.96&#10;&#9;&#9;c-7.08,0-13.65-2.25-19.03-6.06c-11.01,13.15-17.35,29.94-17.35,47.52c0,26.07,13.92,50.41,36.38,63.7&#10;&#9;&#9;c22.46-13.28,36.38-37.62,36.38-63.7c0-17.58-6.34-34.37-17.35-47.52C879.04,206.71,872.47,208.96,865.39,208.96z" transform="matrix(1, 0, 0, 1, -713.9020359700627, -27.21620664988501)"/>









</svg>